<?xml version="1.0" standalone="no"?>
<!DOCTYPE svg PUBLIC "-//W3C//DTD SVG 20010904//EN"
 "http://www.w3.org/TR/2001/REC-SVG-20010904/DTD/svg10.dtd">
<svg version="1.0" xmlns="http://www.w3.org/2000/svg"
 width="500.000000pt" height="500.000000pt" viewBox="0 0 500.000000 500.000000"
 preserveAspectRatio="xMidYMid meet">

<g transform="translate(0.000000,500.000000) scale(0.100000,-0.100000)"
fill="#000000" stroke="none">
<path d="M760 2500 l0 -480 1740 0 1740 0 0 480 0 480 -1740 0 -1740 0 0 -480z
m3450 0 l0 -450 -1715 0 -1715 0 0 450 0 450 1715 0 1715 0 0 -450z"/>
<path d="M850 2500 l0 -390 825 0 825 0 0 390 0 390 -825 0 -825 0 0 -390z
m244 109 c36 -41 18 -51 -25 -15 -60 51 -139 19 -139 -55 0 -52 13 -74 50 -87
37 -13 86 1 101 29 10 20 39 26 39 8 0 -6 -13 -24 -29 -40 -24 -24 -38 -29
-76 -29 -57 0 -80 12 -100 50 -33 63 -9 146 49 171 40 17 99 3 130 -32z m475
28 c27 -14 48 -57 28 -57 -7 0 -20 9 -30 20 -22 26 -73 27 -86 1 -13 -24 8
-43 66 -60 95 -27 80 -121 -20 -121 -37 0 -87 34 -87 60 0 17 18 11 44 -15 27
-27 47 -31 77 -15 38 21 23 47 -42 71 -64 23 -83 46 -69 84 8 23 45 45 75 45
11 0 31 -6 44 -13z m501 -2 c37 -19 60 -62 60 -111 0 -28 -8 -44 -34 -70 -29
-29 -41 -34 -81 -34 -40 0 -52 5 -81 34 -93 93 18 242 136 181z m-850 -73 c0
-83 9 -105 47 -117 17 -4 29 1 48 19 22 22 25 33 25 101 0 60 3 75 15 75 12 0
15 -14 15 -69 0 -113 -22 -151 -90 -151 -68 0 -90 38 -90 151 0 55 3 69 15 69
12 0 15 -15 15 -78z m620 68 c0 -5 -16 -10 -35 -10 l-35 0 0 -100 c0 -82 -3
-100 -15 -100 -12 0 -15 18 -15 100 l0 100 -40 0 c-22 0 -40 5 -40 10 0 6 37
10 90 10 53 0 90 -4 90 -10z m436 -50 c22 -33 42 -60 45 -60 4 0 24 27 45 60
23 35 46 60 57 60 15 0 17 -12 17 -110 0 -90 -3 -110 -15 -110 -11 0 -15 18
-17 83 l-3 82 -35 -52 c-19 -29 -41 -53 -47 -53 -7 0 -28 24 -48 52 l-35 53 0
-83 c0 -66 -3 -82 -15 -82 -12 0 -15 19 -15 110 0 132 9 139 66 50z"/>
<path d="M1955 2595 c-35 -34 -34 -93 0 -125 57 -53 145 -13 145 66 0 75 -92
113 -145 59z"/>
<path d="M2810 2530 l0 -110 35 0 c34 0 35 1 35 40 0 39 1 40 35 40 34 0 35
-1 35 -40 0 -38 2 -40 30 -40 l30 0 0 110 0 110 -29 0 c-27 0 -30 -3 -33 -37
-3 -35 -6 -38 -35 -41 -32 -3 -33 -2 -33 37 0 40 -1 41 -35 41 l-35 0 0 -110z"/>
<path d="M3111 2618 c-52 -133 -71 -184 -71 -190 0 -15 61 -8 66 7 4 10 20 15
45 15 26 0 42 -5 45 -15 4 -9 19 -15 41 -15 29 0 34 3 29 18 -4 9 -23 59 -43
110 -36 91 -37 92 -70 92 -25 0 -36 -5 -42 -22z m47 -116 c-27 -5 -30 1 -17
34 l11 29 13 -30 c12 -27 12 -30 -7 -33z"/>
<path d="M3280 2636 c0 -2 6 -19 14 -37 7 -19 26 -67 40 -106 26 -70 29 -73
59 -73 32 0 33 2 74 111 l41 110 -36 -3 c-33 -3 -36 -6 -54 -57 -10 -30 -20
-56 -22 -58 -2 -3 -14 23 -27 56 -21 58 -23 61 -55 61 -19 0 -34 -2 -34 -4z"/>
<path d="M3540 2530 l0 -110 75 0 c73 0 75 1 75 25 0 23 -4 25 -45 25 -38 0
-45 3 -45 20 0 17 7 20 40 20 36 0 40 3 40 25 0 23 -4 25 -40 25 -29 0 -40 4
-40 15 0 11 12 15 45 15 41 0 45 2 45 25 0 24 -2 25 -75 25 l-75 0 0 -110z"/>
<path d="M3730 2530 l0 -110 34 0 35 0 3 52 3 53 37 -53 c29 -39 44 -52 63
-52 l25 0 0 110 0 110 -29 0 c-29 0 -30 -2 -33 -52 l-3 -53 -38 53 c-31 42
-44 52 -68 52 l-29 0 0 -110z"/>
</g>
</svg>
