<svg data-v-70b83f88="" version="1.0" xmlns="http://www.w3.org/2000/svg" xmlns:xlink="http://www.w3.org/1999/xlink" viewBox="0 0 340.000000 250.000000" preserveAspectRatio="xMidYMid meet" color-interpolation-filters="sRGB" style="margin: auto;"><rect data-v-70b83f88="" x="0" y="0" width="100%" height="100%" fill="#fff" fill-opacity="1" class="background"/><rect data-v-70b83f88="" x="0" y="0" width="100%" height="100%" fill="#FFF" fill-opacity="1" class="watermarklayer"/><g data-v-70b83f88="" fill="#297ad6" class="iconblsvg-g iconsvg" transform="translate(39.54071044921875,111.8024320602417)"><g class="tp-name"><g data-gra="path-name" transform="translate(0, 2.1862212137825434)"><g transform="scale(1)"><path d="M11.84-16.96L11.84-16.96Q9.78-16.96 8.62-15.27 7.46-13.58 7.46-10.61L7.46-10.61Q7.46-4.43 12.16-4.43L12.16-4.43Q13.58-4.43 14.91-4.83 16.24-5.22 17.59-5.78L17.59-5.78 17.59-0.89Q14.91 0.29 11.53 0.29L11.53 0.29Q6.69 0.29 4.11-2.52 1.52-5.33 1.52-10.64L1.52-10.64Q1.52-13.96 2.77-16.48 4.02-19 6.37-20.35 8.72-21.7 11.9-21.7L11.9-21.7Q15.37-21.7 18.53-20.2L18.53-20.2 16.76-15.64Q15.57-16.2 14.39-16.58 13.2-16.96 11.84-16.96ZM34.17-21.4L39.95-21.4 39.95-8.52Q39.95-4.32 37.57-2.01 35.2 0.29 30.72 0.29L30.72 0.29Q26.34 0.29 23.99-1.95 21.64-4.19 21.64-8.39L21.64-8.39 21.64-21.4 27.45-21.4 27.45-8.84Q27.45-6.57 28.3-5.55 29.15-4.52 30.81-4.52L30.81-4.52Q32.58-4.52 33.37-5.54 34.17-6.56 34.17-8.87L34.17-8.87 34.17-21.4ZM58.44-6.5L58.44-6.5Q58.44-4.51 57.43-2.96 56.42-1.42 54.51-0.56 52.61 0.29 50.05 0.29L50.05 0.29Q47.91 0.29 46.47-0.01 45.02-0.31 43.45-1.05L43.45-1.05 43.45-6.21Q45.1-5.36 46.89-4.88 48.67-4.41 50.17-4.41L50.17-4.41Q51.46-4.41 52.06-4.85 52.66-5.3 52.66-6L52.66-6Q52.66-6.44 52.41-6.77 52.17-7.1 51.64-7.43 51.1-7.77 48.79-8.81L48.79-8.81Q46.7-9.76 45.65-10.65 44.61-11.55 44.1-12.7 43.6-13.86 43.6-15.44L43.6-15.44Q43.6-18.4 45.75-20.05 47.9-21.7 51.66-21.7L51.66-21.7Q54.98-21.7 58.44-20.17L58.44-20.17 56.67-15.7Q53.67-17.08 51.48-17.08L51.48-17.08Q50.36-17.08 49.85-16.68 49.33-16.29 49.33-15.7L49.33-15.7Q49.33-15.07 49.98-14.58 50.64-14.08 53.52-12.76L53.52-12.76Q56.29-11.52 57.36-10.09 58.44-8.66 58.44-6.5ZM71.18-16.67L71.18 0 65.4 0 65.4-16.67 60.18-16.67 60.18-21.4 76.39-21.4 76.39-16.67 71.18-16.67ZM99.47-10.73L99.47-10.73Q99.47-5.33 96.82-2.52 94.17 0.29 89.07 0.29L89.07 0.29Q84.03 0.29 81.35-2.53 78.66-5.36 78.66-10.76L78.66-10.76Q78.66-16.1 81.33-18.92 84-21.73 89.1-21.73L89.1-21.73Q94.2-21.73 96.84-18.94 99.47-16.14 99.47-10.73ZM84.75-10.73L84.75-10.73Q84.75-4.52 89.07-4.52L89.07-4.52Q91.26-4.52 92.32-6.03 93.38-7.54 93.38-10.73L93.38-10.73Q93.38-13.93 92.31-15.46 91.23-16.99 89.1-16.99L89.1-16.99Q84.75-16.99 84.75-10.73ZM118.16 0L112.66 0 108.28-15.41 108.15-15.41Q108.46-11.47 108.46-9.29L108.46-9.29 108.46 0 103.34 0 103.34-21.4 111.03-21.4 115.5-6.21 115.61-6.21 119.99-21.4 127.7-21.4 127.7 0 122.39 0 122.39-9.38Q122.39-10.11 122.41-11.01 122.43-11.9 122.61-15.38L122.61-15.38 122.48-15.38 118.16 0Z" transform="translate(-1.5199999809265137, 21.729999542236328)"/></g></g><g transform="translate(129.18000030517578, 0)"><g><g class="imagesvg"><g><rect fill="#297ad6" fill-opacity="0" stroke-width="2" x="0" y="0" width="26.398568145896657" height="26.395136778115504" class="image-rect"/><svg x="0" y="0" width="26.398568145896657" height="26.395136778115504" filtersec="colorsb1863687302" class="image-svg-svg primary" style="overflow: visible;"><svg data-name="图层 1" xmlns="http://www.w3.org/2000/svg" viewBox="0.01851367950439453 0.0027837753295898438 484.3842468261719 484.3206481933594"><defs><radialGradient id="a811d266f-e18a-4cf0-ab91-68ec0a22fe2e" cx="117.94" cy="152.71" r="281.82" gradientUnits="userSpaceOnUse"><stop offset="0" stop-color="#73c8ff"/><stop offset=".22" stop-color="#6fc4fd"/><stop offset=".45" stop-color="#63b8f6"/><stop offset=".68" stop-color="#50a3ec"/><stop offset=".91" stop-color="#3587dd"/><stop offset="1" stop-color="#297ad6"/></radialGradient></defs><title>50</title><path d="M477.05 20.43c-21.19-21.18-64-9.28-92.58 17.21 16.71-2 30 1 38.47 9.44 34.34 34.34-22.21 146.53-126.29 250.6-15.56 15.57-31.31 30-47 43.34 22.11-20.54 43.94-44.06 62.31-69.6 73.06-101.6 90.18-154.11 88.06-188.93-1-1-2-2.11-3-3.13a220.92 220.92 0 0 0-170.19-64.42c10.1 2.4 13.53 10.94 6 30.82-12.43 32.7-50.17 80.7-87.46 107.8 33.79-34.84 63-78.31 72.68-113.47 7.52-27.19-17.87-23.32-43.26-15.63a220.47 220.47 0 0 0-90.88 54.91C-2.58 165.86.64 303 83.91 392.56A131 131 0 0 0 124 422.37c-35.44 14.36-63.55 16-77.95 1.6-10.21-10.22-12.33-27.34-7.6-49.07-26.67 31.23-41.4 80.82-19 103.18C47.35 506 114 496 190.41 455.21c78.22-46.8 159.27-124.42 206.07-186.06C361.1 347.91 292.6 423.25 223 458.65c73.06 6.85 132.63-14.89 179-61.24a221.25 221.25 0 0 0 57-215.07c36.74-72.58 44.89-135.07 18.05-161.91z" transform="translate(-8.47 -9.55)" fill="url(#a811d266f-e18a-4cf0-ab91-68ec0a22fe2e)"/></svg></svg><!----></g></g></g></g><g data-gra="path-name-1" fill="#297ad6" transform="translate(158.5785675048828, 2.1862212137825434)"><g transform="scale(1)"><path d="M20.65-21.4L20.65 0 14.84 0 14.84-8.72 8.12-8.72 8.12 0 2.31 0 2.31-21.4 8.12-21.4 8.12-13.46 14.84-13.46 14.84-21.4 20.65-21.4ZM44.72 0L38.4 0 37.35-4.01 30.4-4.01 29.31 0 22.96 0 29.94-21.48 37.66-21.48 44.72 0ZM31.6-8.75L36.15-8.75 35.23-12.26Q34.9-13.43 34.44-15.29 33.98-17.15 33.84-17.96L33.84-17.96Q33.7-17.21 33.32-15.5 32.93-13.79 31.6-8.75L31.6-8.75ZM56.08-10.49L59.05-21.4 65.52-21.4 58.51 0 51.7 0 44.72-21.4 51.22-21.4 54.13-10.55Q55.04-6.94 55.13-5.52L55.13-5.52Q55.23-6.54 55.54-8.08 55.85-9.61 56.08-10.49L56.08-10.49ZM80.53-4.71L80.53 0 67.83 0 67.83-21.4 80.53-21.4 80.53-16.76 73.61-16.76 73.61-13.39 80.02-13.39 80.02-8.75 73.61-8.75 73.61-4.71 80.53-4.71ZM104.65-21.4L104.65 0 97.07 0 89.26-15.07 89.13-15.07Q89.4-11.52 89.4-9.64L89.4-9.64 89.4 0 84.28 0 84.28-21.4 91.83-21.4 99.62-6.53 99.71-6.53Q99.5-9.76 99.5-11.72L99.5-11.72 99.5-21.4 104.65-21.4Z" transform="translate(-2.309999942779541, 21.729999542236328)"/></g></g></g><!----></g><defs v-gra="od"/></svg>