<svg data-v-70b83f88="" version="1.0" xmlns="http://www.w3.org/2000/svg" xmlns:xlink="http://www.w3.org/1999/xlink" viewBox="0 0 340.000000 250.000000" preserveAspectRatio="xMidYMid meet" color-interpolation-filters="sRGB" style="margin: auto;"><rect data-v-70b83f88="" x="0" y="0" width="100%" height="100%" fill="#fff" fill-opacity="1" class="background"/><!----><g data-v-70b83f88="" fill="#297ad6" class="icon-text-wrapper icon-svg-group iconsvg" transform="translate(86.34500122070312,82.8838996887207)"><g class="iconsvg-imagesvg" transform="translate(53.654998779296875,0)"><g><rect fill="#297ad6" fill-opacity="0" stroke-width="2" x="0" y="0" width="60" height="59.9922010138682" class="image-rect"/><svg x="0" y="0" width="60" height="59.9922010138682" filtersec="colorsb7627422182" class="image-svg-svg primary" style="overflow: visible;"><svg data-name="图层 1" xmlns="http://www.w3.org/2000/svg" viewBox="0.01851367950439453 0.0027837753295898438 484.3842468261719 484.3206481933594"><defs><radialGradient id="a811d266f-e18a-4cf0-ab91-68ec0a22fe2e" cx="117.94" cy="152.71" r="281.82" gradientUnits="userSpaceOnUse"><stop offset="0" stop-color="#73c8ff"/><stop offset=".22" stop-color="#6fc4fd"/><stop offset=".45" stop-color="#63b8f6"/><stop offset=".68" stop-color="#50a3ec"/><stop offset=".91" stop-color="#3587dd"/><stop offset="1" stop-color="#297ad6"/></radialGradient></defs><title>50</title><path d="M477.05 20.43c-21.19-21.18-64-9.28-92.58 17.21 16.71-2 30 1 38.47 9.44 34.34 34.34-22.21 146.53-126.29 250.6-15.56 15.57-31.31 30-47 43.34 22.11-20.54 43.94-44.06 62.31-69.6 73.06-101.6 90.18-154.11 88.06-188.93-1-1-2-2.11-3-3.13a220.92 220.92 0 0 0-170.19-64.42c10.1 2.4 13.53 10.94 6 30.82-12.43 32.7-50.17 80.7-87.46 107.8 33.79-34.84 63-78.31 72.68-113.47 7.52-27.19-17.87-23.32-43.26-15.63a220.47 220.47 0 0 0-90.88 54.91C-2.58 165.86.64 303 83.91 392.56A131 131 0 0 0 124 422.37c-35.44 14.36-63.55 16-77.95 1.6-10.21-10.22-12.33-27.34-7.6-49.07-26.67 31.23-41.4 80.82-19 103.18C47.35 506 114 496 190.41 455.21c78.22-46.8 159.27-124.42 206.07-186.06C361.1 347.91 292.6 423.25 223 458.65c73.06 6.85 132.63-14.89 179-61.24a221.25 221.25 0 0 0 57-215.07c36.74-72.58 44.89-135.07 18.05-161.91z" transform="translate(-8.47 -9.55)" fill="url(#a811d266f-e18a-4cf0-ab91-68ec0a22fe2e)"/></svg></svg><!----></g></g><g transform="translate(0,66.99220275878906)"><g data-gra="path-name" fill-rule="" class="tp-name iconsvg-namesvg"><g transform="scale(1)"><g><path d="M9.28-13.29L9.28-13.29Q7.66-13.29 6.76-11.97 5.85-10.64 5.85-8.32L5.85-8.32Q5.85-3.48 9.53-3.48L9.53-3.48Q10.64-3.48 11.69-3.78 12.73-4.09 13.79-4.53L13.79-4.53 13.79-0.7Q11.69 0.23 9.04 0.23L9.04 0.23Q5.24 0.23 3.22-1.97 1.19-4.17 1.19-8.34L1.19-8.34Q1.19-10.94 2.17-12.91 3.15-14.89 4.99-15.95 6.84-17.01 9.32-17.01L9.32-17.01Q12.04-17.01 14.52-15.83L14.52-15.83 13.13-12.26Q12.2-12.7 11.27-12.99 10.35-13.29 9.28-13.29ZM29.43 0L26.05 0 25.49-1.62 25.22-1.62Q24.66-0.72 23.66-0.25 22.65 0.23 21.3 0.23L21.3 0.23Q19.15 0.23 17.96-1.02 16.77-2.26 16.77-4.53L16.77-4.53 16.77-12.99 21.25-12.99 21.25-5.9Q21.25-4.62 21.61-3.97 21.98-3.31 22.8-3.31L22.8-3.31Q23.96-3.31 24.45-4.23 24.95-5.14 24.95-7.31L24.95-7.31 24.95-12.99 29.43-12.99 29.43 0ZM42.56-3.99L42.56-3.99Q42.56-1.9 41.14-0.84 39.72 0.23 37.06 0.23L37.06 0.23Q35.61 0.23 34.55 0.07 33.48-0.08 32.37-0.49L32.37-0.49 32.37-4.08Q33.41-3.62 34.65-3.33 35.9-3.03 36.87-3.03L36.87-3.03Q38.33-3.03 38.33-3.69L38.33-3.69Q38.33-4.04 37.92-4.31 37.52-4.58 35.56-5.36L35.56-5.36Q33.77-6.09 33.05-7.03 32.34-7.96 32.34-9.39L32.34-9.39Q32.34-11.21 33.74-12.21 35.14-13.22 37.7-13.22L37.7-13.22Q38.98-13.22 40.11-12.94 41.24-12.66 42.46-12.12L42.46-12.12 41.24-9.23Q40.35-9.63 39.35-9.92 38.35-10.2 37.72-10.2L37.72-10.2Q36.62-10.2 36.62-9.66L36.62-9.66Q36.62-9.32 37.01-9.09 37.39-8.85 39.23-8.13L39.23-8.13Q40.59-7.57 41.26-7.03 41.93-6.49 42.25-5.76 42.56-5.04 42.56-3.99ZM51.42-3.31L51.42-3.31Q52.32-3.31 53.59-3.76L53.59-3.76 53.59-0.49Q52.68-0.1 51.86 0.06 51.04 0.23 49.94 0.23L49.94 0.23Q47.68 0.23 46.68-0.88 45.68-1.98 45.68-4.28L45.68-4.28 45.68-9.63 44.11-9.63 44.11-11.46 46.11-12.87 47.27-15.6 50.2-15.6 50.2-12.99 53.39-12.99 53.39-9.63 50.2-9.63 50.2-4.58Q50.2-3.31 51.42-3.31ZM68.27-6.53L68.27-6.53Q68.27-3.34 66.55-1.55 64.84 0.23 61.75 0.23L61.75 0.23Q58.79 0.23 57.04-1.59 55.29-3.42 55.29-6.53L55.29-6.53Q55.29-9.7 57.01-11.46 58.72-13.22 61.82-13.22L61.82-13.22Q63.74-13.22 65.2-12.41 66.67-11.6 67.47-10.08 68.27-8.56 68.27-6.53ZM59.85-6.53L59.85-6.53Q59.85-4.85 60.29-3.97 60.74-3.1 61.8-3.1L61.8-3.1Q62.84-3.1 63.27-3.97 63.7-4.85 63.7-6.53L63.7-6.53Q63.7-8.19 63.27-9.04 62.83-9.89 61.77-9.89L61.77-9.89Q60.74-9.89 60.29-9.04 59.85-8.2 59.85-6.53ZM91.26 0L86.78 0 86.78-7.07Q86.78-8.38 86.42-9.04 86.06-9.7 85.28-9.7L85.28-9.7Q84.24-9.7 83.76-8.82 83.28-7.94 83.28-6.06L83.28-6.06 83.28 0 78.78 0 78.78-7.07Q78.78-8.38 78.44-9.04 78.1-9.7 77.33-9.7L77.33-9.7Q76.27-9.7 75.79-8.76 75.31-7.82 75.31-5.69L75.31-5.69 75.31 0 70.82 0 70.82-12.99 74.21-12.99 74.77-11.39 75.03-11.39Q75.55-12.28 76.53-12.75 77.51-13.22 78.76-13.22L78.76-13.22Q81.57-13.22 82.71-11.52L82.71-11.52 83.06-11.52Q83.61-12.32 84.59-12.77 85.57-13.22 86.75-13.22L86.75-13.22Q89.06-13.22 90.16-12.04 91.26-10.86 91.26-8.45L91.26-8.45 91.26 0ZM108.95-16.77L108.95 0 104.39 0 104.39-6.84 99.13-6.84 99.13 0 94.58 0 94.58-16.77 99.13-16.77 99.13-10.55 104.39-10.55 104.39-16.77 108.95-16.77ZM123.89 0L120.78 0 119.92-1.72 119.83-1.72Q118.93-0.6 117.99-0.18 117.05 0.23 115.55 0.23L115.55 0.23Q113.72 0.23 112.66-0.87 111.61-1.97 111.61-3.97L111.61-3.97Q111.61-6.04 113.05-7.06 114.5-8.07 117.24-8.2L117.24-8.2 119.41-8.27 119.41-8.45Q119.41-10.06 117.83-10.06L117.83-10.06Q116.4-10.06 114.21-9.1L114.21-9.1 112.92-12.05Q115.19-13.22 118.65-13.22L118.65-13.22Q121.15-13.22 122.52-11.99 123.89-10.75 123.89-8.52L123.89-8.52 123.89 0ZM117.46-2.94L117.46-2.94Q118.27-2.94 118.85-3.45 119.43-3.97 119.43-4.79L119.43-4.79 119.43-5.8 118.4-5.76Q116.19-5.68 116.19-4.13L116.19-4.13Q116.19-2.94 117.46-2.94ZM134.79 0L130.35 0 125.4-12.99 130.07-12.99 132.28-5.31Q132.29-5.25 132.32-5.12 132.36-4.98 132.39-4.79 132.43-4.6 132.45-4.39 132.48-4.17 132.48-3.99L132.48-3.99 132.56-3.99Q132.56-4.59 132.77-5.29L132.77-5.29 135.08-12.99 139.74-12.99 134.79 0ZM147.57 0.23L147.57 0.23Q144.32 0.23 142.52-1.5 140.73-3.22 140.73-6.41L140.73-6.41Q140.73-9.7 142.39-11.46 144.06-13.22 147.14-13.22L147.14-13.22Q150.08-13.22 151.68-11.69 153.28-10.16 153.28-7.28L153.28-7.28 153.28-5.29 145.26-5.29Q145.31-4.2 146.06-3.58 146.81-2.96 148.1-2.96L148.1-2.96Q149.29-2.96 150.28-3.18 151.27-3.41 152.43-3.95L152.43-3.95 152.43-0.72Q151.37-0.18 150.25 0.02 149.13 0.23 147.57 0.23ZM147.3-10.17L147.3-10.17Q146.51-10.17 145.98-9.67 145.44-9.18 145.35-8.11L145.35-8.11 149.21-8.11Q149.18-9.05 148.67-9.61 148.16-10.17 147.3-10.17ZM168.5 0L164.01 0 164.01-7.09Q164.01-8.38 163.64-9.04 163.27-9.7 162.44-9.7L162.44-9.7Q161.31-9.7 160.8-8.8 160.3-7.89 160.3-5.69L160.3-5.69 160.3 0 155.81 0 155.81-12.99 159.2-12.99 159.76-11.39 160.02-11.39Q160.6-12.31 161.61-12.77 162.63-13.22 163.94-13.22L163.94-13.22Q166.1-13.22 167.3-11.97 168.5-10.72 168.5-8.45L168.5-8.45 168.5 0Z" transform="translate(-1.190000057220459, 17.010000228881836)"/></g><!----><!----><!----><!----><!----><!----><!----></g></g><!----></g></g><defs v-gra="od"/></svg>