<svg data-v-70b83f88="" version="1.0" xmlns="http://www.w3.org/2000/svg" xmlns:xlink="http://www.w3.org/1999/xlink" viewBox="0 0 340.000000 250.000000" preserveAspectRatio="xMidYMid meet" color-interpolation-filters="sRGB" style="margin: auto;"><rect data-v-70b83f88="" x="0" y="0" width="100%" height="100%" fill="#fff" fill-opacity="1" class="background"/><rect data-v-70b83f88="" x="0" y="0" width="100%" height="100%" fill="#FFF" fill-opacity="1" class="watermarklayer"/><g data-v-70b83f88="" fill="#297ad6" class="icon-text-wrapper icon-svg-group iconsvg" transform="translate(75.59500122070312,82.87389755249023)"><g class="iconsvg-imagesvg" transform="translate(64.40499877929688,0)"><g><rect fill="#297ad6" fill-opacity="0" stroke-width="2" x="0" y="0" width="60" height="59.9922010138682" class="image-rect"/><svg x="0" y="0" width="60" height="59.9922010138682" filtersec="colorsb677038771" class="image-svg-svg primary" style="overflow: visible;"><svg data-name="图层 1" xmlns="http://www.w3.org/2000/svg" viewBox="0.01851367950439453 0.0027837753295898438 484.3842468261719 484.3206481933594"><defs><radialGradient id="a811d266f-e18a-4cf0-ab91-68ec0a22fe2e" cx="117.94" cy="152.71" r="281.82" gradientUnits="userSpaceOnUse"><stop offset="0" stop-color="#73c8ff"/><stop offset=".22" stop-color="#6fc4fd"/><stop offset=".45" stop-color="#63b8f6"/><stop offset=".68" stop-color="#50a3ec"/><stop offset=".91" stop-color="#3587dd"/><stop offset="1" stop-color="#297ad6"/></radialGradient></defs><title>50</title><path d="M477.05 20.43c-21.19-21.18-64-9.28-92.58 17.21 16.71-2 30 1 38.47 9.44 34.34 34.34-22.21 146.53-126.29 250.6-15.56 15.57-31.31 30-47 43.34 22.11-20.54 43.94-44.06 62.31-69.6 73.06-101.6 90.18-154.11 88.06-188.93-1-1-2-2.11-3-3.13a220.92 220.92 0 0 0-170.19-64.42c10.1 2.4 13.53 10.94 6 30.82-12.43 32.7-50.17 80.7-87.46 107.8 33.79-34.84 63-78.31 72.68-113.47 7.52-27.19-17.87-23.32-43.26-15.63a220.47 220.47 0 0 0-90.88 54.91C-2.58 165.86.64 303 83.91 392.56A131 131 0 0 0 124 422.37c-35.44 14.36-63.55 16-77.95 1.6-10.21-10.22-12.33-27.34-7.6-49.07-26.67 31.23-41.4 80.82-19 103.18C47.35 506 114 496 190.41 455.21c78.22-46.8 159.27-124.42 206.07-186.06C361.1 347.91 292.6 423.25 223 458.65c73.06 6.85 132.63-14.89 179-61.24a221.25 221.25 0 0 0 57-215.07c36.74-72.58 44.89-135.07 18.05-161.91z" transform="translate(-8.47 -9.55)" fill="url(#a811d266f-e18a-4cf0-ab91-68ec0a22fe2e)"/></svg></svg><!----></g></g><g transform="translate(0,66.99220275878906)"><g data-gra="path-name" fill-rule="" class="tp-name iconsvg-namesvg"><g transform="scale(1)"><g><path d="M9.28-13.29L9.28-13.29Q7.66-13.29 6.76-11.97 5.85-10.64 5.85-8.32L5.85-8.32Q5.85-3.48 9.53-3.48L9.53-3.48Q10.64-3.48 11.69-3.78 12.73-4.09 13.79-4.53L13.79-4.53 13.79-0.7Q11.69 0.23 9.04 0.23L9.04 0.23Q5.24 0.23 3.22-1.97 1.19-4.17 1.19-8.34L1.19-8.34Q1.19-10.94 2.17-12.91 3.15-14.89 4.99-15.95 6.84-17.01 9.32-17.01L9.32-17.01Q12.04-17.01 14.52-15.83L14.52-15.83 13.13-12.26Q12.2-12.7 11.27-12.99 10.35-13.29 9.28-13.29ZM26.78-16.77L31.31-16.77 31.31-6.68Q31.31-3.38 29.45-1.58 27.58 0.23 24.07 0.23L24.07 0.23Q20.64 0.23 18.8-1.53 16.96-3.28 16.96-6.57L16.96-6.57 16.96-16.77 21.52-16.77 21.52-6.93Q21.52-5.15 22.18-4.35 22.85-3.54 24.14-3.54L24.14-3.54Q25.53-3.54 26.16-4.34 26.78-5.14 26.78-6.95L26.78-6.95 26.78-16.77ZM45.8-5.09L45.8-5.09Q45.8-3.53 45.01-2.32 44.21-1.11 42.72-0.44 41.23 0.23 39.23 0.23L39.23 0.23Q37.55 0.23 36.42-0.01 35.28-0.24 34.05-0.83L34.05-0.83 34.05-4.86Q35.35-4.2 36.75-3.83 38.15-3.45 39.32-3.45L39.32-3.45Q40.33-3.45 40.8-3.8 41.27-4.15 41.27-4.7L41.27-4.7Q41.27-5.05 41.08-5.3 40.89-5.56 40.47-5.83 40.05-6.09 38.24-6.9L38.24-6.9Q36.6-7.65 35.78-8.35 34.96-9.05 34.56-9.96 34.17-10.86 34.17-12.1L34.17-12.1Q34.17-14.42 35.85-15.71 37.54-17.01 40.49-17.01L40.49-17.01Q43.09-17.01 45.8-15.8L45.8-15.8 44.41-12.31Q42.06-13.38 40.35-13.38L40.35-13.38Q39.47-13.38 39.06-13.08 38.66-12.77 38.66-12.31L38.66-12.31Q38.66-11.81 39.17-11.42 39.68-11.03 41.94-10L41.94-10Q44.11-9.03 44.95-7.91 45.8-6.79 45.8-5.09ZM55.79-13.06L55.79 0 51.26 0 51.26-13.06 47.16-13.06 47.16-16.77 59.87-16.77 59.87-13.06 55.79-13.06ZM77.96-8.41L77.96-8.41Q77.96-4.17 75.88-1.97 73.81 0.23 69.8 0.23L69.8 0.23Q65.86 0.23 63.75-1.98 61.65-4.2 61.65-8.43L61.65-8.43Q61.65-12.62 63.74-14.82 65.83-17.03 69.83-17.03L69.83-17.03Q73.83-17.03 75.89-14.84 77.96-12.65 77.96-8.41ZM66.42-8.41L66.42-8.41Q66.42-3.54 69.8-3.54L69.8-3.54Q71.52-3.54 72.35-4.73 73.19-5.91 73.19-8.41L73.19-8.41Q73.19-10.92 72.34-12.12 71.5-13.32 69.83-13.32L69.83-13.32Q66.42-13.32 66.42-8.41ZM92.6 0L88.29 0 84.86-12.08 84.76-12.08Q85-8.99 85-7.28L85-7.28 85 0 80.99 0 80.99-16.77 87.02-16.77 90.52-4.86 90.61-4.86 94.04-16.77 100.08-16.77 100.08 0 95.92 0 95.92-7.35Q95.92-7.93 95.94-8.63 95.95-9.32 96.09-12.05L96.09-12.05 95.99-12.05 92.6 0ZM124.17-16.77L124.17 0 119.61 0 119.61-6.84 114.35-6.84 114.35 0 109.8 0 109.8-16.77 114.35-16.77 114.35-10.55 119.61-10.55 119.61-16.77 124.17-16.77ZM143.04 0L138.08 0 137.25-3.14 131.81-3.14 130.96 0 125.98 0 131.45-16.84 137.5-16.84 143.04 0ZM132.75-6.86L136.31-6.86 135.59-9.61Q135.34-10.53 134.98-11.99 134.62-13.44 134.5-14.07L134.5-14.07Q134.4-13.49 134.09-12.15 133.79-10.8 132.75-6.86L132.75-6.86ZM151.94-8.22L154.26-16.77 159.33-16.77 153.84 0 148.51 0 143.04-16.77 148.13-16.77 150.41-8.27Q151.12-5.44 151.19-4.32L151.19-4.32Q151.27-5.13 151.51-6.33 151.75-7.54 151.94-8.22L151.94-8.22ZM171.1-3.69L171.1 0 161.15 0 161.15-16.77 171.1-16.77 171.1-13.13 165.68-13.13 165.68-10.49 170.7-10.49 170.7-6.86 165.68-6.86 165.68-3.69 171.1-3.69ZM190-16.77L190 0 184.06 0 177.94-11.81 177.83-11.81Q178.05-9.03 178.05-7.56L178.05-7.56 178.05 0 174.04 0 174.04-16.77 179.96-16.77 186.06-5.12 186.13-5.12Q185.97-7.65 185.97-9.19L185.97-9.19 185.97-16.77 190-16.77Z" transform="translate(-1.190000057220459, 17.030000686645508)"/></g><!----><!----><!----><!----><!----><!----><!----></g></g><!----></g></g><defs v-gra="od"/></svg>